<svg width="24" height="19" viewBox="0 0 24 19" fill="none" xmlns="http://www.w3.org/2000/svg">
<path d="M23.2033 0H0.796675C0.357195 0 0 0.357507 0 0.796987V2.40031C0 2.47418 0.0801039 2.55896 0.145558 2.59325L11.923 9.32042C11.9536 9.33818 11.9878 9.34629 12.0221 9.34629C12.057 9.34629 12.0923 9.33725 12.1231 9.31886L23.5446 2.59979C23.6088 2.56395 23.779 2.4692 23.8429 2.42556C23.9202 2.37288 24 2.3252 24 2.23075V0.796676C24 0.357507 23.6428 0 23.2033 0Z" fill="white"/>
<path d="M23.9006 4.81771C23.8383 4.78155 23.7622 4.78311 23.6996 4.81895L17.2361 8.62186C17.1844 8.65179 17.1485 8.70477 17.1398 8.76462C17.132 8.82415 17.1507 8.88493 17.1909 8.92888L23.6553 15.8973C23.6937 15.9387 23.746 15.9609 23.8009 15.9609C23.8255 15.9609 23.8504 15.9562 23.8738 15.9475C23.9502 15.9172 24.0001 15.844 24.0001 15.7617V4.99069C24.0001 4.91901 23.9623 4.85324 23.9006 4.81771Z" fill="white"/>
<path d="M15.3734 9.89888C15.3098 9.82999 15.2076 9.81472 15.1269 9.8621L12.5361 11.3866C12.2319 11.5655 11.8423 11.567 11.5362 11.3931L9.25622 10.0906C9.18079 10.0479 9.08573 10.0581 9.02214 10.1174L0.364064 18.1483C0.317934 18.1913 0.294869 18.2534 0.301726 18.316C0.308583 18.3787 0.345051 18.4348 0.399596 18.4663C0.534245 18.5454 0.66422 18.5831 0.796376 18.5831H22.9739C23.0534 18.5831 23.1251 18.5361 23.1563 18.4631C23.1881 18.3908 23.1737 18.3064 23.1195 18.2484L15.3734 9.89888Z" fill="white"/>
<path d="M7.11709 9.16744C7.16384 9.12474 7.18722 9.06178 7.18036 8.99913C7.17351 8.93617 7.13611 8.88037 7.08125 8.84858L0.297039 4.97367C0.236571 4.93876 0.160208 4.93939 0.0984935 4.97492C0.0374026 5.01045 0 5.07622 0 5.14697V15.3142C0 15.3931 0.0467532 15.4648 0.119065 15.4963C0.144623 15.5078 0.17174 15.5134 0.199169 15.5134C0.248104 15.5134 0.297039 15.495 0.334442 15.4601L7.11709 9.16744Z" fill="white"/>
</svg>
