<svg width="16" height="22" viewBox="0 0 16 22" fill="none" xmlns="http://www.w3.org/2000/svg">
<path d="M15.4818 11.6016C13.9118 7.52161 8.32183 7.3016 9.67183 1.37161C9.77183 0.931605 9.30183 0.591605 8.92183 0.821605C5.29183 2.96161 2.68183 7.25161 4.87183 12.8716C5.05183 13.3316 4.51183 13.7616 4.12183 13.4616C2.31183 12.0916 2.12183 10.1216 2.28183 8.71161C2.34183 8.19161 1.66183 7.94161 1.37183 8.3716C0.691831 9.4116 0.00183105 11.0916 0.00183105 13.6216C0.381831 19.2216 5.11183 20.9416 6.81183 21.1616C9.24183 21.4716 11.8718 21.0216 13.7618 19.2916C15.8418 17.3616 16.6018 14.2816 15.4818 11.6016ZM6.20183 16.6316C7.64183 16.2816 8.38183 15.2416 8.58183 14.3216C8.91183 12.8916 7.62183 11.4916 8.49183 9.2316C8.82183 11.1016 11.7618 12.2716 11.7618 14.3116C11.8418 16.8416 9.10183 19.0116 6.20183 16.6316Z" fill="#D1D1D1"/>
</svg>
