<svg width="198" height="29" viewBox="0 0 198 29" fill="none" xmlns="http://www.w3.org/2000/svg">
<g clip-path="url(#clip0_0_1171)">
<path d="M11.3466 4.60183C11.8682 3.54985 12.6359 2.63856 13.5848 1.94496C14.4953 1.2668 15.5528 0.811743 16.6721 0.616528C17.7594 0.431047 18.8704 0.431047 19.9577 0.616528C21.0692 0.814484 22.1188 1.26944 23.0224 1.94496C23.9765 2.64392 24.7562 3.55313 25.3007 4.60183L25.3811 4.76225L36.0294 28.5738H31.229L21.4323 6.68472C21.32 6.42648 21.1567 6.19349 20.9521 5.99969C20.7475 5.80589 20.5059 5.65525 20.2416 5.5568C19.6392 5.28937 18.9868 5.15267 18.3275 5.15576C17.6673 5.15269 17.0141 5.28938 16.4108 5.5568C16.1466 5.6549 15.9051 5.80544 15.7009 5.9993C15.4967 6.19316 15.334 6.42634 15.2226 6.68472H15.1824L5.38569 28.5738H0.582764L11.2688 4.76225L11.3466 4.60183Z" fill="white"/>
<path d="M44.4169 28.594H40.0612V0.456177H44.4169V28.594Z" fill="white"/>
<path d="M53.4501 23.6336C53.6474 23.8403 53.8853 24.0041 54.149 24.1149C54.4126 24.2258 54.6963 24.2812 54.9824 24.2778H82.1119V28.624H54.9824C54.1229 28.6372 53.2697 28.4746 52.4756 28.1461C51.6816 27.8176 50.9634 27.3302 50.3654 26.7141C49.7465 26.1177 49.257 25.4009 48.9273 24.608C48.5976 23.8151 48.4347 22.963 48.4487 22.1047V0.456177H52.8045V22.1047C52.8011 22.3901 52.8566 22.6732 52.9677 22.9362C53.0788 23.1993 53.243 23.4367 53.4501 23.6336Z" fill="white"/>
<path d="M96.9226 4.60183C97.4435 3.54935 98.2113 2.63791 99.1608 1.94496C100.07 1.26682 101.127 0.811753 102.245 0.616525C103.334 0.431048 104.446 0.431048 105.534 0.616525C106.645 0.814927 107.695 1.26984 108.598 1.94496C109.552 2.64392 110.332 3.55313 110.877 4.60183L110.957 4.76225L121.603 28.5738H116.805L107.008 6.68472C106.896 6.42648 106.733 6.19349 106.528 5.99969C106.323 5.80588 106.082 5.65525 105.818 5.5568C105.215 5.28965 104.563 5.15297 103.903 5.15576C103.243 5.15269 102.59 5.28938 101.987 5.5568C101.723 5.65525 101.481 5.80588 101.276 5.99969C101.072 6.19349 100.908 6.42648 100.796 6.68472H100.756L90.9591 28.5738H86.1613L96.8472 4.76225L96.9226 4.60183Z" fill="white"/>
<path d="M133.54 4.96283C133.243 4.82916 132.061 4.77568 129.993 4.80242V28.594H125.637V0.456177H132.168C133.675 0.484584 134.865 0.679258 135.738 1.04019C136.61 1.40112 137.41 2.17228 138.137 3.35367L138.179 3.43388L150.518 21.9041C151.108 22.9235 151.76 23.5676 152.475 23.8366C153.19 24.1057 154.259 24.226 155.681 24.1976V0.456177H160.076V28.594H155.07C153.081 28.594 151.475 28.279 150.252 27.649C149.03 27.019 147.857 25.8452 146.735 24.1274L134.557 5.90026L134.517 5.86015C134.294 5.46555 133.952 5.15143 133.54 4.96283Z" fill="white"/>
<path d="M164.113 0.375904H191.054C191.917 0.364704 192.773 0.528437 193.57 0.857183C194.367 1.18593 195.089 1.67283 195.691 2.28834C196.314 2.88196 196.808 3.59757 197.141 4.39032C197.473 5.18306 197.639 6.03586 197.626 6.89526V22.1046C197.639 22.9644 197.474 23.8176 197.141 24.6107C196.808 25.4039 196.315 26.1199 195.691 26.714C195.088 27.3291 194.366 27.8155 193.569 28.1438C192.772 28.4721 191.917 28.6355 191.054 28.624H164.113V0.375904ZM191.054 4.76225C188.552 4.76225 184.801 4.76893 179.801 4.7823C174.8 4.79566 171.023 4.80235 168.469 4.80235V24.1975C171.025 24.1975 174.802 24.2109 179.801 24.2376C184.799 24.2643 188.551 24.2777 191.054 24.2777C191.344 24.2848 191.632 24.2312 191.899 24.1202C192.167 24.0092 192.408 23.8434 192.607 23.6335C192.808 23.433 192.966 23.1944 193.073 22.9319C193.18 22.6693 193.233 22.388 193.23 22.1046V6.89526C193.233 6.61556 193.18 6.33803 193.073 6.07951C192.966 5.821 192.807 5.58688 192.607 5.39137C192.404 5.18554 192.162 5.02348 191.894 4.91525C191.626 4.80702 191.338 4.75494 191.049 4.76225H191.054Z" fill="white"/>
</g>
<defs>
<clipPath id="clip0_0_1171">
<rect width="198" height="29" fill="white"/>
</clipPath>
</defs>
</svg>
