<svg width="41" height="42" viewBox="0 0 41 42" fill="none" xmlns="http://www.w3.org/2000/svg">
<path d="M3.73631 6.33337C3.73631 5.32504 4.56131 4.50004 5.56964 4.50004H9.23631V0.833374H5.56964C2.52631 0.833374 0.0696411 3.29004 0.0696411 6.33337V10H3.73631V6.33337Z" fill="white"/>
<path d="M3.73631 35.6667V32H0.0696411V35.6667C0.0696411 38.71 2.52631 41.1667 5.56964 41.1667H9.23631V37.5H5.56964C4.56131 37.5 3.73631 36.675 3.73631 35.6667Z" fill="white"/>
<path d="M34.903 0.833374H31.2363V4.50004H34.903C35.9113 4.50004 36.7363 5.32504 36.7363 6.33337V10H40.403V6.33337C40.403 3.29004 37.9463 0.833374 34.903 0.833374Z" fill="white"/>
<path d="M36.7363 35.6667C36.7363 36.675 35.9113 37.5 34.903 37.5H31.2363V41.1667H34.903C37.9463 41.1667 40.403 38.71 40.403 35.6667V32H36.7363V35.6667Z" fill="white"/>
<path d="M33.0696 26.2617V15.7384C33.0696 14.4184 32.373 13.2084 31.2363 12.5667L22.0696 7.28671C21.5013 6.95671 20.878 6.79171 20.2363 6.79171C19.5946 6.79171 18.9713 6.95671 18.403 7.28671L9.23631 12.5484C8.09964 13.2084 7.40298 14.4184 7.40298 15.7384V26.2617C7.40298 27.5817 8.09964 28.7917 9.23631 29.4334L18.403 34.7134C18.9713 35.0434 19.5946 35.2084 20.2363 35.2084C20.878 35.2084 21.5013 35.0434 22.0696 34.7134L31.2363 29.4334C32.373 28.7917 33.0696 27.5817 33.0696 26.2617ZM18.403 30.4784L11.0696 26.2617V17.7734L18.403 22.045V30.4784ZM20.2363 18.8734L12.9763 14.6384L20.2363 10.4584L27.4963 14.6384L20.2363 18.8734ZM29.403 26.2617L22.0696 30.4784V22.045L29.403 17.7734V26.2617Z" fill="white"/>
</svg>
