<svg width="24" height="20" viewBox="0 0 24 20" fill="none" xmlns="http://www.w3.org/2000/svg">
<path d="M24 2.3089C23.117 2.70036 22.1683 2.96498 21.1722 3.08372C22.1885 2.4744 22.9696 1.50945 23.3368 0.360298C22.3855 0.924431 21.3314 1.3346 20.2103 1.55464C19.3124 0.598418 18.0326 0 16.6164 0C13.8973 0 11.6925 2.20417 11.6925 4.92386C11.6925 5.3094 11.7362 5.6856 11.8203 6.04621C7.72801 5.84081 4.1001 3.88037 1.67152 0.901056C1.24764 1.62851 1.00484 2.47471 1.00484 3.3767C1.00484 5.085 1.87411 6.59164 3.1953 7.47493C2.38837 7.44906 1.62913 7.22746 0.965261 6.85906C0.964638 6.87963 0.964638 6.89989 0.964638 6.92108C0.964638 9.30603 2.66171 11.2961 4.91389 11.7489C4.50092 11.8608 4.06613 11.9213 3.617 11.9213C3.2994 11.9213 2.99116 11.8908 2.69039 11.8331C3.31686 13.7889 5.13518 15.2129 7.28979 15.2528C5.60456 16.5731 3.48173 17.3607 1.17471 17.3607C0.77732 17.3607 0.385543 17.3376 0 17.2918C2.17893 18.6887 4.76709 19.5034 7.54755 19.5034C16.6042 19.5034 21.5568 12.0011 21.5568 5.49516C21.5568 5.28198 21.5518 5.0691 21.5424 4.85747C22.5052 4.16368 23.3402 3.29629 24 2.3089V2.3089Z" fill="white"/>
</svg>
